<?xml version="1.0" encoding="utf-8"?>
<svg viewBox="0 0 500 500" xmlns="http://www.w3.org/2000/svg" xmlns:bx="https://boxy-svg.com">
  <defs>
    <linearGradient gradientUnits="userSpaceOnUse" x1="247.437" y1="132.118" x2="247.437" y2="461.845" id="gradient-1" spreadMethod="repeat" gradientTransform="matrix(0.996198, 0, 0, 0.891192, 0.940681, 73.886047)">
      <stop offset="0" style="stop-color: rgba(214, 111, 200, 1)"/>
      <stop offset="1" style="stop-color: rgba(174, 49, 157, 1)"/>
    </linearGradient>
  </defs>
  <g>
    <g>
      <rect x="22.779" y="156.118" width="449.317" height="329.727" style="fill-opacity: 0.79; fill: rgb(138, 21, 123);"/>
      <path style="fill: rgb(255, 255, 255); visibility: hidden;" d="M 162.351 155.264 L 179.551 181.745 L 472.97 181.317 L 486.196 154.41 L 162.351 155.264 Z"/>
      <rect x="23.632" y="191.628" width="447.609" height="293.85" style="fill-opacity: 0.79; fill: url(#gradient-1);"/>
    </g>
  </g>
  <g style="" transform="matrix(1, 0, 0, 1.067264, 0, -22.018173)"/>
  <rect x="22.918" y="156.257" width="34.738" height="328.019" style="fill: rgb(184, 83, 170); visibility: hidden;"/>
  <path style="fill: rgb(255, 254, 254);" transform="matrix(-0.429935, 0, 0, 0.426701, 331.691864, 12.361139)" d="M 433.551 520.5 A 131 131 0 1 1 433.551 651.5 A 95.859 95.859 0 1 0 433.551 520.5 Z" bx:shape="crescent 547 586 131 300 0.7 1@af0b3d36"/>
  <g transform="matrix(1, 0, 0, 1, -28.938229, -23.52076)">
    <rect x="214.692" y="222.095" width="188.497" height="239.749" style="stroke: rgba(91, 89, 89, 0.19); fill: rgb(236, 255, 254);"/>
    <rect x="267.084" y="227.221" width="125.285" height="2.847" style="fill: rgb(151, 208, 239);"/>
    <rect x="267.038" y="234.367" width="124.147" height="2.847" style="fill: rgb(151, 208, 239);"/>
    <rect x="266.469" y="241.367" width="125.285" height="2.847" style="fill: rgb(151, 208, 239);"/>
    <rect x="298.366" y="255.74" width="167.22" height="2.847" style="fill: rgb(151, 208, 239);" transform="matrix(1, 0.000023, 0, 1, -74.61808, -0.008294)"/>
    <rect x="298.305" y="262.887" width="165.701" height="2.847" style="fill: rgb(151, 208, 239);" transform="matrix(1, 0.000023, 0, 1, -74.61808, -0.008294)"/>
    <rect x="297.545" y="269.887" width="167.22" height="2.847" style="fill: rgb(151, 208, 239);" transform="matrix(1, 0.000023, 0, 1, -74.61808, -0.008294)"/>
    <rect x="298.366" y="255.74" width="167.22" height="2.847" style="fill: rgb(151, 208, 239);" transform="matrix(1, 0.000023, 0, 1, -75.187386, 22.200686)"/>
    <rect x="298.305" y="262.887" width="165.701" height="2.847" style="fill: rgb(151, 208, 239);" transform="matrix(1, 0.000023, 0, 1, -75.187386, 22.200686)"/>
    <rect x="297.545" y="269.887" width="167.22" height="2.847" style="fill: rgb(151, 208, 239);" transform="matrix(1, 0.000023, 0, 1, -75.187386, 22.200686)"/>
    <rect x="298.366" y="255.74" width="167.22" height="2.847" style="fill: rgb(151, 208, 239);" transform="matrix(1, 0.000023, 0, 1, -72.339996, 45.549202)"/>
    <rect x="298.305" y="262.887" width="165.701" height="2.847" style="fill: rgb(151, 208, 239);" transform="matrix(1, 0.000023, 0, 1, -72.339996, 45.549202)"/>
    <rect x="297.545" y="269.887" width="167.22" height="2.847" style="fill: rgb(151, 208, 239);" transform="matrix(1, 0.000023, 0, 1, -72.339996, 45.549202)"/>
    <rect x="298.366" y="255.74" width="167.22" height="2.847" style="fill: rgb(151, 208, 239);" transform="matrix(1, 0.000023, 0, 1, -73.478951, 83.134636)"/>
    <rect x="298.305" y="262.887" width="165.701" height="2.847" style="fill: rgb(151, 208, 239);" transform="matrix(1, 0.000023, 0, 1, -73.478951, 83.134636)"/>
    <rect x="297.545" y="269.887" width="167.22" height="2.847" style="fill: rgb(151, 208, 239);" transform="matrix(1, 0.000023, 0, 1, -73.478951, 83.134636)"/>
    <rect x="298.366" y="255.74" width="167.22" height="2.847" style="fill: rgb(151, 208, 239);" transform="matrix(1, 0.000023, 0, 1, -72.340004, 111.608437)"/>
    <rect x="298.305" y="262.887" width="165.701" height="2.847" style="fill: rgb(151, 208, 239);" transform="matrix(1, 0.000023, 0, 1, -72.340004, 111.608437)"/>
    <rect x="297.545" y="269.887" width="167.22" height="2.847" style="fill: rgb(151, 208, 239);" transform="matrix(1, 0.000023, 0, 1, -72.340004, 111.608437)"/>
    <path style="fill: rgba(225, 25, 25, 0.56);" transform="matrix(-0.206507, 0, 0, 0.204953, 475.792938, 308.718201)" d="M 433.551 520.5 A 131 131 0 1 1 433.551 651.5 A 95.859 95.859 0 1 0 433.551 520.5 Z" bx:shape="crescent 547 586 131 300 0.7 1@af0b3d36"/>
  </g>
  <g transform="matrix(1, 0, 0, 1, -11, -9)">
    <rect x="214.692" y="222.095" width="188.497" height="239.749" style="stroke: rgba(91, 89, 89, 0.19); fill: rgb(236, 255, 254);"/>
    <rect x="267.084" y="227.221" width="125.285" height="2.847" style="fill: rgb(151, 208, 239);"/>
    <rect x="267.038" y="234.367" width="124.147" height="2.847" style="fill: rgb(151, 208, 239);"/>
    <rect x="266.469" y="241.367" width="125.285" height="2.847" style="fill: rgb(151, 208, 239);"/>
    <rect x="298.366" y="255.74" width="167.22" height="2.847" style="fill: rgb(151, 208, 239);" transform="matrix(1, 0.000023, 0, 1, -74.61808, -0.008294)"/>
    <rect x="298.305" y="262.887" width="165.701" height="2.847" style="fill: rgb(151, 208, 239);" transform="matrix(1, 0.000023, 0, 1, -74.61808, -0.008294)"/>
    <rect x="297.545" y="269.887" width="167.22" height="2.847" style="fill: rgb(151, 208, 239);" transform="matrix(1, 0.000023, 0, 1, -74.61808, -0.008294)"/>
    <rect x="298.366" y="255.74" width="167.22" height="2.847" style="fill: rgb(151, 208, 239);" transform="matrix(1, 0.000023, 0, 1, -75.187386, 22.200686)"/>
    <rect x="298.305" y="262.887" width="165.701" height="2.847" style="fill: rgb(151, 208, 239);" transform="matrix(1, 0.000023, 0, 1, -75.187386, 22.200686)"/>
    <rect x="297.545" y="269.887" width="167.22" height="2.847" style="fill: rgb(151, 208, 239);" transform="matrix(1, 0.000023, 0, 1, -75.187386, 22.200686)"/>
    <rect x="298.366" y="255.74" width="167.22" height="2.847" style="fill: rgb(151, 208, 239);" transform="matrix(1, 0.000023, 0, 1, -72.339996, 45.549202)"/>
    <rect x="298.305" y="262.887" width="165.701" height="2.847" style="fill: rgb(151, 208, 239);" transform="matrix(1, 0.000023, 0, 1, -72.339996, 45.549202)"/>
    <rect x="297.545" y="269.887" width="167.22" height="2.847" style="fill: rgb(151, 208, 239);" transform="matrix(1, 0.000023, 0, 1, -72.339996, 45.549202)"/>
    <rect x="298.366" y="255.74" width="167.22" height="2.847" style="fill: rgb(151, 208, 239);" transform="matrix(1, 0.000023, 0, 1, -73.478951, 83.134636)"/>
    <rect x="298.305" y="262.887" width="165.701" height="2.847" style="fill: rgb(151, 208, 239);" transform="matrix(1, 0.000023, 0, 1, -73.478951, 83.134636)"/>
    <rect x="297.545" y="269.887" width="167.22" height="2.847" style="fill: rgb(151, 208, 239);" transform="matrix(1, 0.000023, 0, 1, -73.478951, 83.134636)"/>
    <rect x="298.366" y="255.74" width="167.22" height="2.847" style="fill: rgb(151, 208, 239);" transform="matrix(1, 0.000023, 0, 1, -72.340004, 111.608437)"/>
    <rect x="298.305" y="262.887" width="165.701" height="2.847" style="fill: rgb(151, 208, 239);" transform="matrix(1, 0.000023, 0, 1, -72.340004, 111.608437)"/>
    <rect x="297.545" y="269.887" width="167.22" height="2.847" style="fill: rgb(151, 208, 239);" transform="matrix(1, 0.000023, 0, 1, -72.340004, 111.608437)"/>
    <path style="fill: rgba(225, 25, 25, 0.56);" transform="matrix(-0.206507, 0, 0, 0.204953, 475.792938, 308.718201)" d="M 433.551 520.5 A 131 131 0 1 1 433.551 651.5 A 95.859 95.859 0 1 0 433.551 520.5 Z" bx:shape="crescent 547 586 131 300 0.7 1@af0b3d36"/>
  </g>
  <g transform="matrix(1, 0, 0, 1, 10.355619, 2.675139)">
    <rect x="214.692" y="222.095" width="188.497" height="239.749" style="stroke: rgba(91, 89, 89, 0.19); fill: rgb(236, 255, 254);"/>
    <rect x="267.084" y="227.221" width="125.285" height="2.847" style="fill: rgb(151, 208, 239);"/>
    <rect x="267.038" y="234.367" width="124.147" height="2.847" style="fill: rgb(151, 208, 239);"/>
    <rect x="266.469" y="241.367" width="125.285" height="2.847" style="fill: rgb(151, 208, 239);"/>
    <rect x="298.366" y="255.74" width="167.22" height="2.847" style="fill: rgb(151, 208, 239);" transform="matrix(1, 0.000023, 0, 1, -74.61808, -0.008294)"/>
    <rect x="298.305" y="262.887" width="165.701" height="2.847" style="fill: rgb(151, 208, 239);" transform="matrix(1, 0.000023, 0, 1, -74.61808, -0.008294)"/>
    <rect x="297.545" y="269.887" width="167.22" height="2.847" style="fill: rgb(151, 208, 239);" transform="matrix(1, 0.000023, 0, 1, -74.61808, -0.008294)"/>
    <rect x="298.366" y="255.74" width="167.22" height="2.847" style="fill: rgb(151, 208, 239);" transform="matrix(1, 0.000023, 0, 1, -75.187386, 22.200686)"/>
    <rect x="298.305" y="262.887" width="165.701" height="2.847" style="fill: rgb(151, 208, 239);" transform="matrix(1, 0.000023, 0, 1, -75.187386, 22.200686)"/>
    <rect x="297.545" y="269.887" width="167.22" height="2.847" style="fill: rgb(151, 208, 239);" transform="matrix(1, 0.000023, 0, 1, -75.187386, 22.200686)"/>
    <rect x="298.366" y="255.74" width="167.22" height="2.847" style="fill: rgb(151, 208, 239);" transform="matrix(1, 0.000023, 0, 1, -72.339996, 45.549202)"/>
    <rect x="298.305" y="262.887" width="165.701" height="2.847" style="fill: rgb(151, 208, 239);" transform="matrix(1, 0.000023, 0, 1, -72.339996, 45.549202)"/>
    <rect x="297.545" y="269.887" width="167.22" height="2.847" style="fill: rgb(151, 208, 239);" transform="matrix(1, 0.000023, 0, 1, -72.339996, 45.549202)"/>
    <rect x="298.366" y="255.74" width="167.22" height="2.847" style="fill: rgb(151, 208, 239);" transform="matrix(1, 0.000023, 0, 1, -73.478951, 83.134636)"/>
    <rect x="298.305" y="262.887" width="165.701" height="2.847" style="fill: rgb(151, 208, 239);" transform="matrix(1, 0.000023, 0, 1, -73.478951, 83.134636)"/>
    <rect x="297.545" y="269.887" width="167.22" height="2.847" style="fill: rgb(151, 208, 239);" transform="matrix(1, 0.000023, 0, 1, -73.478951, 83.134636)"/>
    <rect x="298.366" y="255.74" width="167.22" height="2.847" style="fill: rgb(151, 208, 239);" transform="matrix(1, 0.000023, 0, 1, -72.340004, 111.608437)"/>
    <rect x="298.305" y="262.887" width="165.701" height="2.847" style="fill: rgb(151, 208, 239);" transform="matrix(1, 0.000023, 0, 1, -72.340004, 111.608437)"/>
    <rect x="297.545" y="269.887" width="167.22" height="2.847" style="fill: rgb(151, 208, 239);" transform="matrix(1, 0.000023, 0, 1, -72.340004, 111.608437)"/>
    <path style="fill: rgba(225, 25, 25, 0.56);" transform="matrix(-0.206507, 0, 0, 0.204953, 475.792938, 308.718201)" d="M 433.551 520.5 A 131 131 0 1 1 433.551 651.5 A 95.859 95.859 0 1 0 433.551 520.5 Z" bx:shape="crescent 547 586 131 300 0.7 1@af0b3d36"/>
  </g>
  <g transform="matrix(1, 0, 0, 1, 34.843094, 10.64781)">
    <rect x="214.692" y="222.095" width="188.497" height="239.749" style="stroke: rgba(91, 89, 89, 0.19); fill: rgb(236, 255, 254);"/>
    <rect x="267.084" y="227.221" width="125.285" height="2.847" style="fill: rgb(151, 208, 239);"/>
    <rect x="267.038" y="234.367" width="124.147" height="2.847" style="fill: rgb(151, 208, 239);"/>
    <rect x="266.469" y="241.367" width="125.285" height="2.847" style="fill: rgb(151, 208, 239);"/>
    <rect x="298.366" y="255.74" width="167.22" height="2.847" style="fill: rgb(151, 208, 239);" transform="matrix(1, 0.000023, 0, 1, -74.61808, -0.008294)"/>
    <rect x="298.305" y="262.887" width="165.701" height="2.847" style="fill: rgb(151, 208, 239);" transform="matrix(1, 0.000023, 0, 1, -74.61808, -0.008294)"/>
    <rect x="297.545" y="269.887" width="167.22" height="2.847" style="fill: rgb(151, 208, 239);" transform="matrix(1, 0.000023, 0, 1, -74.61808, -0.008294)"/>
    <rect x="298.366" y="255.74" width="167.22" height="2.847" style="fill: rgb(151, 208, 239);" transform="matrix(1, 0.000023, 0, 1, -75.187386, 22.200686)"/>
    <rect x="298.305" y="262.887" width="165.701" height="2.847" style="fill: rgb(151, 208, 239);" transform="matrix(1, 0.000023, 0, 1, -75.187386, 22.200686)"/>
    <rect x="297.545" y="269.887" width="167.22" height="2.847" style="fill: rgb(151, 208, 239);" transform="matrix(1, 0.000023, 0, 1, -75.187386, 22.200686)"/>
    <rect x="298.366" y="255.74" width="167.22" height="2.847" style="fill: rgb(151, 208, 239);" transform="matrix(1, 0.000023, 0, 1, -72.339996, 45.549202)"/>
    <rect x="298.305" y="262.887" width="165.701" height="2.847" style="fill: rgb(151, 208, 239);" transform="matrix(1, 0.000023, 0, 1, -72.339996, 45.549202)"/>
    <rect x="297.545" y="269.887" width="167.22" height="2.847" style="fill: rgb(151, 208, 239);" transform="matrix(1, 0.000023, 0, 1, -72.339996, 45.549202)"/>
    <rect x="298.366" y="255.74" width="167.22" height="2.847" style="fill: rgb(151, 208, 239);" transform="matrix(1, 0.000023, 0, 1, -73.478951, 83.134636)"/>
    <rect x="298.305" y="262.887" width="165.701" height="2.847" style="fill: rgb(151, 208, 239);" transform="matrix(1, 0.000023, 0, 1, -73.478951, 83.134636)"/>
    <rect x="297.545" y="269.887" width="167.22" height="2.847" style="fill: rgb(151, 208, 239);" transform="matrix(1, 0.000023, 0, 1, -73.478951, 83.134636)"/>
    <rect x="298.366" y="255.74" width="167.22" height="2.847" style="fill: rgb(151, 208, 239);" transform="matrix(1, 0.000023, 0, 1, -72.340004, 111.608437)"/>
    <rect x="298.305" y="262.887" width="165.701" height="2.847" style="fill: rgb(151, 208, 239);" transform="matrix(1, 0.000023, 0, 1, -72.340004, 111.608437)"/>
    <rect x="297.545" y="269.887" width="167.22" height="2.847" style="fill: rgb(151, 208, 239);" transform="matrix(1, 0.000023, 0, 1, -72.340004, 111.608437)"/>
    <path style="fill: rgba(225, 25, 25, 0.56);" transform="matrix(-0.224027, 0, 0, 0.222342, 483.388947, 296.25058)" d="M 433.551 520.5 A 131 131 0 1 1 433.551 651.5 A 95.859 95.859 0 1 0 433.551 520.5 Z" bx:shape="crescent 547 586 131 300 0.7 1@af0b3d36"/>
  </g>
</svg>